<svg width="20" height="20" viewBox="0 0 20 20" fill="none" xmlns="http://www.w3.org/2000/svg">
<path fill-rule="evenodd" clip-rule="evenodd" d="M4.16667 3.95825C3.8904 3.95825 3.62545 4.068 3.4301 4.26335C3.23875 4.45469 3.12954 4.71281 3.12514 4.98294C3.31806 8.07341 4.63275 10.9874 6.82263 13.1773C9.01252 15.3672 11.9265 16.6819 15.017 16.8748C15.2871 16.8704 15.5452 16.7612 15.7366 16.5698C15.9319 16.3745 16.0417 16.1095 16.0417 15.8333V12.9231L12.7621 11.6112L11.7859 13.2381C11.6186 13.5171 11.2653 13.621 10.9736 13.4771C9.04056 12.5238 7.47611 10.9594 6.5228 9.02637C6.37892 8.73464 6.48286 8.38134 6.76177 8.21399L8.38869 7.23784L7.07685 3.95825H4.16667ZM2.54621 3.37947C2.97598 2.94969 3.55888 2.70825 4.16667 2.70825H7.5C7.75557 2.70825 7.98538 2.86385 8.0803 3.10113L9.74696 7.2678C9.86089 7.55262 9.75127 7.87802 9.48823 8.03585L7.91508 8.97974C8.66174 10.2676 9.73232 11.3382 11.0202 12.0848L11.9641 10.5117C12.1219 10.2486 12.4473 10.139 12.7321 10.253L16.8988 11.9196C17.1361 12.0145 17.2917 12.2444 17.2917 12.4999V15.8333C17.2917 16.441 17.0502 17.0239 16.6205 17.4537C16.1907 17.8835 15.6078 18.1249 15 18.1249C14.9874 18.1249 14.9747 18.1245 14.9621 18.1238C11.5591 17.917 8.34946 16.4719 5.93875 14.0612C3.52804 11.6505 2.08295 8.44082 1.87615 5.03783C1.87538 5.02521 1.875 5.01256 1.875 4.99992C1.875 4.39213 2.11644 3.80924 2.54621 3.37947Z" fill="#A0AEC0"/>
</svg>
