<svg width="20" height="20" viewBox="0 0 20 20" fill="none" xmlns="http://www.w3.org/2000/svg">
<path fill-rule="evenodd" clip-rule="evenodd" d="M7.5 3.125C6.00423 3.125 4.79167 4.33756 4.79167 5.83333C4.79167 7.3291 6.00423 8.54167 7.5 8.54167C8.99577 8.54167 10.2083 7.3291 10.2083 5.83333C10.2083 4.33756 8.99577 3.125 7.5 3.125ZM3.54167 5.83333C3.54167 3.64721 5.31387 1.875 7.5 1.875C9.68613 1.875 11.4583 3.64721 11.4583 5.83333C11.4583 8.01946 9.68613 9.79167 7.5 9.79167C5.31387 9.79167 3.54167 8.01946 3.54167 5.83333Z" fill="#A0AEC0"/>
<path fill-rule="evenodd" clip-rule="evenodd" d="M5.83333 13.125C5.11504 13.125 4.42616 13.4103 3.91825 13.9183C3.41034 14.4262 3.125 15.115 3.125 15.8333V17.5C3.125 17.8452 2.84518 18.125 2.5 18.125C2.15482 18.125 1.875 17.8452 1.875 17.5V15.8333C1.875 14.7835 2.29204 13.7767 3.03437 13.0344C3.7767 12.292 4.78352 11.875 5.83333 11.875H9.16667C10.2165 11.875 11.2233 12.292 11.9656 13.0344C12.708 13.7767 13.125 14.7835 13.125 15.8333V17.5C13.125 17.8452 12.8452 18.125 12.5 18.125C12.1548 18.125 11.875 17.8452 11.875 17.5V15.8333C11.875 15.115 11.5897 14.4262 11.0817 13.9183C10.5738 13.4103 9.88496 13.125 9.16667 13.125H5.83333Z" fill="#A0AEC0"/>
<path fill-rule="evenodd" clip-rule="evenodd" d="M12.7279 2.45331C12.8135 2.11892 13.154 1.91725 13.4884 2.00286C14.3398 2.22087 15.0945 2.71606 15.6334 3.41036C16.1723 4.10466 16.4649 4.95858 16.4649 5.8375C16.4649 6.71642 16.1723 7.57034 15.6334 8.26464C15.0945 8.95894 14.3398 9.45413 13.4884 9.67214C13.154 9.75775 12.8135 9.55608 12.7279 9.22169C12.6422 8.8873 12.8439 8.54682 13.1783 8.4612C13.7609 8.31204 14.2772 7.97322 14.646 7.49817C15.0147 7.02313 15.2149 6.43886 15.2149 5.8375C15.2149 5.23614 15.0147 4.65187 14.646 4.17682C14.2772 3.70178 13.7609 3.36296 13.1783 3.2138C12.8439 3.12818 12.6422 2.7877 12.7279 2.45331Z" fill="#A0AEC0"/>
<path fill-rule="evenodd" clip-rule="evenodd" d="M14.3948 12.4688C14.4811 12.1345 14.822 11.9336 15.1562 12.0198C16.0022 12.2382 16.7521 12.7304 17.2891 13.4195C17.8261 14.1087 18.12 14.9561 18.125 15.8297L18.125 15.8333L18.125 17.5C18.125 17.8452 17.8452 18.125 17.5 18.125C17.1548 18.125 16.875 17.8452 16.875 17.5V15.8352C16.8712 15.2381 16.6701 14.6589 16.3031 14.1878C15.9356 13.7163 15.4225 13.3796 14.8438 13.2302C14.5095 13.1439 14.3086 12.803 14.3948 12.4688Z" fill="#A0AEC0"/>
</svg>
