<svg width="20" height="20" viewBox="0 0 20 20" fill="none" xmlns="http://www.w3.org/2000/svg">
<path fill-rule="evenodd" clip-rule="evenodd" d="M11.6665 1.875C12.0117 1.875 12.2915 2.15482 12.2915 2.5V5.83333C12.2915 5.88859 12.3135 5.94158 12.3525 5.98065C12.3916 6.01972 12.4446 6.04167 12.4998 6.04167H15.8332C16.1783 6.04167 16.4582 6.32149 16.4582 6.66667C16.4582 7.01184 16.1783 7.29167 15.8332 7.29167H12.4998C12.1131 7.29167 11.7421 7.13802 11.4686 6.86453C11.1952 6.59104 11.0415 6.22011 11.0415 5.83333V2.5C11.0415 2.15482 11.3213 1.875 11.6665 1.875Z" fill="#A0AEC0"/>
<path fill-rule="evenodd" clip-rule="evenodd" d="M5.83317 3.125C5.5569 3.125 5.29195 3.23475 5.0966 3.4301C4.90125 3.62545 4.7915 3.8904 4.7915 4.16667V15.8333C4.7915 16.1096 4.90125 16.3746 5.0966 16.5699C5.29195 16.7653 5.5569 16.875 5.83317 16.875H14.1665C14.4428 16.875 14.7077 16.7653 14.9031 16.5699C15.0984 16.3746 15.2082 16.1096 15.2082 15.8333V6.92555L11.4076 3.125H5.83317ZM4.21272 2.54621C4.64249 2.11644 5.22538 1.875 5.83317 1.875H11.6665C11.8323 1.875 11.9912 1.94085 12.1084 2.05806L16.2751 6.22472C16.3923 6.34193 16.4582 6.50091 16.4582 6.66667V15.8333C16.4582 16.4411 16.2167 17.024 15.787 17.4538C15.3572 17.8836 14.7743 18.125 14.1665 18.125H5.83317C5.22538 18.125 4.64249 17.8836 4.21272 17.4538C3.78295 17.024 3.5415 16.4411 3.5415 15.8333V4.16667C3.5415 3.55888 3.78295 2.97598 4.21272 2.54621Z" fill="#A0AEC0"/>
<path fill-rule="evenodd" clip-rule="evenodd" d="M6.87484 7.5C6.87484 7.15482 7.15466 6.875 7.49984 6.875H8.33317C8.67835 6.875 8.95817 7.15482 8.95817 7.5C8.95817 7.84518 8.67835 8.125 8.33317 8.125H7.49984C7.15466 8.125 6.87484 7.84518 6.87484 7.5Z" fill="#A0AEC0"/>
<path fill-rule="evenodd" clip-rule="evenodd" d="M6.87484 10.8333C6.87484 10.4882 7.15466 10.2083 7.49984 10.2083H12.4998C12.845 10.2083 13.1248 10.4882 13.1248 10.8333C13.1248 11.1785 12.845 11.4583 12.4998 11.4583H7.49984C7.15466 11.4583 6.87484 11.1785 6.87484 10.8333Z" fill="#A0AEC0"/>
<path fill-rule="evenodd" clip-rule="evenodd" d="M6.87484 14.1667C6.87484 13.8215 7.15466 13.5417 7.49984 13.5417H12.4998C12.845 13.5417 13.1248 13.8215 13.1248 14.1667C13.1248 14.5118 12.845 14.7917 12.4998 14.7917H7.49984C7.15466 14.7917 6.87484 14.5118 6.87484 14.1667Z" fill="#A0AEC0"/>
</svg>
