<svg width="20" height="20" viewBox="0 0 20 20" fill="none" xmlns="http://www.w3.org/2000/svg">
<path d="M12.3077 10.7365H6.92304C6.60766 10.7365 6.34612 10.473 6.34612 10.1551C6.34612 9.83729 6.60766 9.57373 6.92304 9.57373H12.3077C12.623 9.57373 12.8846 9.83729 12.8846 10.1551C12.8846 10.473 12.623 10.7365 12.3077 10.7365Z" fill="#A0AEC0"/>
<path d="M10.2923 13.8373H6.92304C6.60766 13.8373 6.34612 13.5737 6.34612 13.2559C6.34612 12.9381 6.60766 12.6745 6.92304 12.6745H10.2923C10.6077 12.6745 10.8692 12.9381 10.8692 13.2559C10.8692 13.5737 10.6077 13.8373 10.2923 13.8373Z" fill="#A0AEC0"/>
<path d="M11.5384 5.93031H8.46151C7.72304 5.93031 6.34612 5.93031 6.34612 3.79853C6.34612 1.66675 7.72304 1.66675 8.46151 1.66675H11.5384C12.2769 1.66675 13.6538 1.66675 13.6538 3.79853C13.6538 4.54272 13.6538 5.93031 11.5384 5.93031ZM8.46151 2.82954C7.69997 2.82954 7.49997 2.82954 7.49997 3.79853C7.49997 4.76752 7.69997 4.76752 8.46151 4.76752H11.5384C12.5 4.76752 12.5 4.56597 12.5 3.79853C12.5 2.82954 12.3 2.82954 11.5384 2.82954H8.46151Z" fill="#A0AEC0"/>
<path d="M12.3077 18.3334H7.69231C3.36923 18.3334 2.5 16.3334 2.5 13.1008V8.44968C2.5 4.9148 3.76923 3.40317 6.89231 3.24038C7.2 3.22488 7.48462 3.46519 7.5 3.79077C7.51538 4.11635 7.26923 4.37992 6.95385 4.39542C4.76923 4.51945 3.65385 5.17837 3.65385 8.44968V13.1008C3.65385 15.9691 4.21538 17.1706 7.69231 17.1706H12.3077C15.7846 17.1706 16.3462 15.9691 16.3462 13.1008V8.44968C16.3462 5.17837 15.2308 4.51945 13.0462 4.39542C12.7308 4.37992 12.4846 4.10085 12.5 3.78302C12.5154 3.46519 12.7923 3.21713 13.1077 3.23263C16.2308 3.40317 17.5 4.9148 17.5 8.44193V13.0931C17.5 16.3334 16.6308 18.3334 12.3077 18.3334Z" fill="#A0AEC0"/>
</svg>
