<svg width="20" height="20" viewBox="0 0 20 20" fill="none" xmlns="http://www.w3.org/2000/svg">
<mask id="path-1-inside-1_660_4067" fill="white">
<path d="M16.8749 8.47504C16.873 8.17057 16.7912 7.87194 16.6375 7.6091C16.4838 7.34626 16.2637 7.12846 15.9992 6.97754V6.62567C16.0661 3.40317 13.2224 0.558793 9.99924 0.625668C6.69174 0.625668 4.00049 3.31754 4.00049 6.62567V6.98192C3.73625 7.13206 3.51624 7.34919 3.36263 7.61143C3.20901 7.87367 3.12722 8.17176 3.12549 8.47567V9.62567C3.12598 10.083 3.30788 10.5215 3.63128 10.8449C3.95467 11.1683 4.39314 11.3502 4.85049 11.3507H5.60424C7.34361 14.8825 12.658 14.8819 14.3955 11.3507H15.1499C15.6073 11.3502 16.0459 11.1682 16.3693 10.8447C16.6927 10.5211 16.8745 10.0825 16.8749 9.62504V8.47504ZM5.24986 6.62504C5.49111 0.255668 14.6849 0.386918 14.7499 6.75129H14.4105C14.2617 6.50004 14.113 6.24629 13.9324 6.01567C11.8886 3.21942 7.29924 3.54692 5.67611 6.60817C5.64861 6.65692 5.61486 6.70129 5.58861 6.75129H5.25049V6.62629L5.24986 6.62504ZM4.84986 10.1007C4.72389 10.1007 4.60307 10.0506 4.51399 9.96154C4.42491 9.87247 4.37486 9.75165 4.37486 9.62567V8.47567C4.38486 8.06254 4.77111 7.96317 5.13736 8.00067C4.99192 8.69311 4.99192 9.40822 5.13736 10.1007H4.84986ZM9.99986 12.7757C5.07986 12.635 5.07736 5.46629 9.99986 5.32567C14.9111 5.46067 14.9299 12.6319 9.99986 12.7757ZM15.6249 9.62567C15.6249 9.68805 15.6126 9.74981 15.5887 9.80744C15.5648 9.86507 15.5298 9.91744 15.4857 9.96154C15.4416 10.0057 15.3893 10.0406 15.3316 10.0645C15.274 10.0884 15.2122 10.1007 15.1499 10.1007H14.8624C14.8655 10.0888 14.8661 10.0769 14.8686 10.065C15.0086 9.38382 15.0065 8.68103 14.8624 8.00067H15.1499C15.4011 8.00192 15.6317 8.21754 15.6249 8.47567V9.62567Z"/>
</mask>
<path d="M16.8749 8.47504C16.873 8.17057 16.7912 7.87194 16.6375 7.6091C16.4838 7.34626 16.2637 7.12846 15.9992 6.97754V6.62567C16.0661 3.40317 13.2224 0.558793 9.99924 0.625668C6.69174 0.625668 4.00049 3.31754 4.00049 6.62567V6.98192C3.73625 7.13206 3.51624 7.34919 3.36263 7.61143C3.20901 7.87367 3.12722 8.17176 3.12549 8.47567V9.62567C3.12598 10.083 3.30788 10.5215 3.63128 10.8449C3.95467 11.1683 4.39314 11.3502 4.85049 11.3507H5.60424C7.34361 14.8825 12.658 14.8819 14.3955 11.3507H15.1499C15.6073 11.3502 16.0459 11.1682 16.3693 10.8447C16.6927 10.5211 16.8745 10.0825 16.8749 9.62504V8.47504ZM5.24986 6.62504C5.49111 0.255668 14.6849 0.386918 14.7499 6.75129H14.4105C14.2617 6.50004 14.113 6.24629 13.9324 6.01567C11.8886 3.21942 7.29924 3.54692 5.67611 6.60817C5.64861 6.65692 5.61486 6.70129 5.58861 6.75129H5.25049V6.62629L5.24986 6.62504ZM4.84986 10.1007C4.72389 10.1007 4.60307 10.0506 4.51399 9.96154C4.42491 9.87247 4.37486 9.75165 4.37486 9.62567V8.47567C4.38486 8.06254 4.77111 7.96317 5.13736 8.00067C4.99192 8.69311 4.99192 9.40822 5.13736 10.1007H4.84986ZM9.99986 12.7757C5.07986 12.635 5.07736 5.46629 9.99986 5.32567C14.9111 5.46067 14.9299 12.6319 9.99986 12.7757ZM15.6249 9.62567C15.6249 9.68805 15.6126 9.74981 15.5887 9.80744C15.5648 9.86507 15.5298 9.91744 15.4857 9.96154C15.4416 10.0057 15.3893 10.0406 15.3316 10.0645C15.274 10.0884 15.2122 10.1007 15.1499 10.1007H14.8624C14.8655 10.0888 14.8661 10.0769 14.8686 10.065C15.0086 9.38382 15.0065 8.68103 14.8624 8.00067H15.1499C15.4011 8.00192 15.6317 8.21754 15.6249 8.47567V9.62567Z" fill="#A0AEC0"/>
<path d="M16.8749 8.47504H32.8749V8.42685L32.8746 8.37865L16.8749 8.47504ZM15.9992 6.97754H-0.000761986V16.2686L8.06864 20.8738L15.9992 6.97754ZM15.9992 6.62567L0.00268221 6.2937L-0.000761986 6.45967V6.62567H15.9992ZM9.99924 0.625668V16.6257H10.1652L10.3311 16.6222L9.99924 0.625668ZM4.00049 6.98192L11.9048 20.8931L20.0005 16.2932V6.98192H4.00049ZM3.12549 8.47567L-12.8743 8.38449L-12.8745 8.43008V8.47567H3.12549ZM3.12549 9.62567H-12.8745V9.63435L-12.8745 9.64303L3.12549 9.62567ZM4.85049 11.3507L4.83313 27.3507L4.84181 27.3507H4.85049V11.3507ZM5.60424 11.3507L19.958 4.28174L15.5596 -4.64933H5.60424V11.3507ZM14.3955 11.3507V-4.64933H4.43614L0.0392079 4.28687L14.3955 11.3507ZM15.1499 11.3507V27.3507H15.1585L15.1672 27.3507L15.1499 11.3507ZM16.8749 9.62504L32.8749 9.63662V9.62504H16.8749ZM5.24986 6.62504L-10.7387 6.01945L-10.8939 10.1164L-9.05961 13.7832L5.24986 6.62504ZM14.7499 6.75129V22.7513H30.9141L30.749 6.58789L14.7499 6.75129ZM14.4105 6.75129L0.642485 14.9025L5.28928 22.7513H14.4105V6.75129ZM13.9324 6.01567L1.01484 15.4569L1.17184 15.6717L1.33588 15.8812L13.9324 6.01567ZM5.67611 6.60817L19.6118 14.4693L19.7143 14.2876L19.812 14.1033L5.67611 6.60817ZM5.58861 6.75129V22.7513H15.2596L19.755 14.1886L5.58861 6.75129ZM5.25049 6.75129H-10.7495V22.7513H5.25049V6.75129ZM5.25049 6.62629H21.2505V2.8476L19.56 -0.531852L5.25049 6.62629ZM4.84986 10.1007V26.1007V10.1007ZM4.37486 8.47567L-11.6205 8.08849L-11.6251 8.28205V8.47567H4.37486ZM5.13736 8.00067L20.7957 11.2895L24.4494 -6.10564L6.76707 -7.91612L5.13736 8.00067ZM5.13736 10.1007V26.1007H24.8471L20.7957 6.81179L5.13736 10.1007ZM9.99986 12.7757L9.54273 28.7691L10.0045 28.7823L10.4662 28.7689L9.99986 12.7757ZM9.99986 5.32567L10.4395 -10.6683L9.99123 -10.6806L9.54296 -10.6678L9.99986 5.32567ZM14.8624 10.1007L-0.61083 6.02878L-5.89291 26.1007H14.8624V10.1007ZM14.8686 10.065L30.5254 13.3612L30.5333 13.3238L30.541 13.2863L14.8686 10.065ZM14.8624 8.00067V-7.99933H-4.88246L-0.790225 11.3168L14.8624 8.00067ZM15.1499 8.00067L15.2295 -7.99913L15.1897 -7.99933H15.1499V8.00067ZM15.6249 8.47567L-0.369465 8.04967L-0.375138 8.26263V8.47567H15.6249ZM32.8746 8.37865C32.8558 5.26842 32.0195 2.2178 30.4496 -0.467166L2.82538 15.6854C1.56279 13.5261 0.890222 11.0727 0.875153 8.57143L32.8746 8.37865ZM30.4496 -0.467166C28.8796 -3.15211 26.6312 -5.37703 23.9298 -6.9187L8.06864 20.8738C5.89616 19.634 4.08795 17.8446 2.82538 15.6854L30.4496 -0.467166ZM31.9992 6.97754V6.62567H-0.000761986V6.97754H31.9992ZM31.9958 6.95764C32.2514 -5.35884 21.9865 -15.6265 9.66733 -15.3709L10.3311 16.6222C7.0876 16.6895 4.52514 15.3118 2.91888 13.7055C1.31279 12.0993 -0.0646257 9.53706 0.00268221 6.2937L31.9958 6.95764ZM9.99924 -15.3743C-2.14808 -15.3743 -11.9995 -5.51575 -11.9995 6.62567H20.0005C20.0005 12.1508 15.5316 16.6257 9.99924 16.6257V-15.3743ZM-11.9995 6.62567V6.98192H20.0005V6.62567H-11.9995ZM-3.90384 -6.92928C-6.61283 -5.39004 -8.86833 -3.16407 -10.4431 -0.475637L17.1684 15.6985C15.9008 17.8624 14.0853 19.6542 11.9048 20.8931L-3.90384 -6.92928ZM-10.4431 -0.475637C-12.018 2.2128 -12.8565 5.26879 -12.8743 8.38449L19.1252 8.56685C19.1109 11.0747 18.436 13.5345 17.1684 15.6985L-10.4431 -0.475637ZM-12.8745 8.47567V9.62567H19.1255V8.47567H-12.8745ZM-12.8745 9.64303C-12.8694 14.3378 -11.0022 18.8389 -7.68243 22.1586L14.945 -0.468828C17.6179 2.20411 19.1214 5.8282 19.1255 9.60831L-12.8745 9.64303ZM-7.68243 22.1586C-4.3627 25.4783 0.13835 27.3456 4.83313 27.3507L4.86785 -4.64932C8.64793 -4.64522 12.272 -3.14178 14.945 -0.468828L-7.68243 22.1586ZM4.85049 27.3507H5.60424V-4.64933H4.85049V27.3507ZM-8.74952 18.4196C-1.14735 33.8561 21.15 33.8641 28.7518 18.4145L0.0392079 4.28687C2.25071 -0.207738 6.59868 -2.00051 9.99986 -2.00066C13.4015 -2.00081 17.7467 -0.208452 19.958 4.28174L-8.74952 18.4196ZM14.3955 27.3507H15.1499V-4.64933H14.3955V27.3507ZM15.1672 27.3507C19.8631 27.3456 24.3651 25.4774 27.6851 22.1563L5.05354 -0.467001C7.72663 -3.14106 11.3515 -4.64522 15.1325 -4.64932L15.1672 27.3507ZM27.6851 22.1563C31.005 18.8352 32.8715 14.3325 32.8749 9.63662L0.874866 9.61347C0.877601 5.83249 2.38045 2.20706 5.05354 -0.467001L27.6851 22.1563ZM32.8749 9.62504V8.47504H0.874862V9.62504H32.8749ZM21.2384 7.23063C21.1425 9.76215 19.9814 12.8152 17.3568 15.1093C14.9746 17.1916 12.1993 17.9439 9.84558 17.9115C7.49236 17.8791 4.74069 17.051 2.41774 14.9061C-0.142107 12.5425 -1.22334 9.45697 -1.2493 6.91469L30.749 6.58789C30.4709 -20.6456 -9.7108 -21.1181 -10.7387 6.01945L21.2384 7.23063ZM14.7499 -9.24871H14.4105V22.7513H14.7499V-9.24871ZM28.1785 -1.39991C28.1557 -1.43843 27.4721 -2.64556 26.5288 -3.84986L1.33588 15.8812C0.993788 15.4444 0.765867 15.0938 0.66794 14.9392C0.616872 14.8586 0.585052 14.8056 0.583436 14.8029C0.582128 14.8007 0.584969 14.8054 0.595404 14.823C0.608213 14.8446 0.617973 14.8611 0.642485 14.9025L28.1785 -1.39991ZM26.8499 -3.42561C17.8427 -15.7492 -1.29669 -14.3967 -8.45979 -0.886917L19.812 14.1033C17.6691 18.1448 13.8439 19.8557 10.7895 20.0745C7.73661 20.2931 3.71131 19.1462 1.01484 15.4569L26.8499 -3.42561ZM-8.25954 -1.25297C-8.09308 -1.54806 -7.95191 -1.77518 -7.8781 -1.8922C-7.84028 -1.95216 -7.8109 -1.99775 -7.79994 -2.01472C-7.79431 -2.02345 -7.79023 -2.02975 -7.79147 -2.02783C-7.79174 -2.02742 -7.79189 -2.02719 -7.79258 -2.02611C-7.79313 -2.02526 -7.794 -2.02392 -7.79498 -2.0224C-7.79692 -2.01941 -7.8 -2.01465 -7.80366 -2.009C-7.82408 -1.97742 -7.9285 -1.81642 -8.05296 -1.61221C-8.18335 -1.39827 -8.3707 -1.08043 -8.57775 -0.686048L19.755 14.1886C19.5611 14.558 19.3878 14.8516 19.2719 15.0416C19.2133 15.1379 19.164 15.2163 19.1305 15.2691C19.0979 15.3204 19.073 15.359 19.0674 15.3675C19.0651 15.3712 19.0621 15.3758 19.0666 15.3688C19.0692 15.3649 19.0771 15.3527 19.0865 15.3381C19.105 15.3094 19.1419 15.2521 19.1872 15.1803C19.2759 15.0397 19.4316 14.7888 19.6118 14.4693L-8.25954 -1.25297ZM5.58861 -9.24871H5.25049V22.7513H5.58861V-9.24871ZM21.2505 6.75129V6.62629H-10.7495V6.75129H21.2505ZM19.56 -0.531852L19.5593 -0.533102L-9.05961 13.7832L-9.05898 13.7844L19.56 -0.531852ZM4.84986 -5.89933C8.96731 -5.89933 12.9162 -4.2637 15.8277 -1.35216L-6.79972 21.2753C-3.71003 24.3649 0.480463 26.1007 4.84986 26.1007V-5.89933ZM15.8277 -1.35216C18.7392 1.55933 20.3749 5.50817 20.3749 9.62567H-11.6251C-11.6251 13.9951 -9.88938 18.1856 -6.79972 21.2753L15.8277 -1.35216ZM20.3749 9.62567V8.47567H-11.6251V9.62567H20.3749ZM20.3702 8.86285C20.3108 11.3173 19.6415 14.1976 17.8707 16.928C16.1197 19.628 13.8285 21.3547 11.7779 22.38C8.10668 24.2156 4.8332 24.0532 3.50766 23.9175L6.76707 -7.91612C5.07527 -8.08934 1.42554 -8.22087 -2.5329 -6.24165C-7.75527 -3.63046 -11.4664 1.72365 -11.6205 8.08849L20.3702 8.86285ZM-10.521 4.71179C-11.122 7.57316 -11.122 10.5282 -10.521 13.3895L20.7957 6.81179C21.1058 8.28827 21.1058 9.81307 20.7957 11.2895L-10.521 4.71179ZM5.13736 -5.89933H4.84986V26.1007H5.13736V-5.89933ZM10.457 -3.2178C26.1279 -2.76989 26.3913 20.8639 10.4568 21.3191L9.54296 -10.6678C-16.2366 -9.93134 -15.9682 28.04 9.54273 28.7691L10.457 -3.2178ZM9.56022 21.3196C6.60313 21.2383 3.26942 19.932 0.797067 17.1456C-1.45498 14.6075 -2.30638 11.6262 -2.30966 9.06791C-2.31294 6.50865 -1.46812 3.51609 0.789023 0.965806C3.26577 -1.83261 6.59898 -3.13197 9.53353 -3.21753L10.4662 28.7689C36.4624 28.0109 35.7432 -9.97274 10.4395 -10.6683L9.56022 21.3196ZM-0.375138 9.62567C-0.375138 7.58687 0.0264394 5.56806 0.806632 3.68451L30.3708 15.9304C31.1987 13.9316 31.6249 11.7892 31.6249 9.62567H-0.375138ZM0.806632 3.68451C1.58683 1.80095 2.73038 0.0894814 4.17203 -1.35216L26.7994 21.2753C28.3293 19.7454 29.5428 17.9292 30.3708 15.9304L0.806632 3.68451ZM4.17203 -1.35216C5.61369 -2.79383 7.32517 -3.93738 9.2087 -4.71756L21.4546 24.8466C23.4534 24.0187 25.2696 22.8051 26.7994 21.2753L4.17203 -1.35216ZM9.2087 -4.71756C11.0923 -5.49776 13.1111 -5.89933 15.1499 -5.89933V26.1007C17.3134 26.1007 19.4557 25.6745 21.4546 24.8466L9.2087 -4.71756ZM15.1499 -5.89933H14.8624V26.1007H15.1499V-5.89933ZM30.3356 14.1726C30.4688 13.6662 30.5546 13.2391 30.6087 12.9404C30.6605 12.6541 30.693 12.4279 30.7007 12.3749C30.7031 12.3586 30.7049 12.3454 30.7051 12.344C30.7059 12.3385 30.7045 12.3483 30.7032 12.3577C30.7003 12.3778 30.6914 12.4394 30.6791 12.5187C30.655 12.6746 30.6057 12.9796 30.5254 13.3612L-0.788183 6.76888C-0.869772 7.15642 -0.920084 7.4674 -0.945101 7.6292C-0.957813 7.71142 -0.967141 7.77606 -0.970459 7.79912C-0.972027 7.81002 -0.973636 7.82129 -0.973065 7.81729C-0.973008 7.8169 -0.972559 7.81375 -0.971968 7.80963C-0.971353 7.80535 -0.970414 7.79881 -0.969255 7.79081C-0.96244 7.74372 -0.930796 7.52351 -0.880072 7.24316C-0.827089 6.95032 -0.742531 6.52924 -0.61083 6.02878L30.3356 14.1726ZM30.541 13.2863C31.1244 10.4478 31.1155 7.51946 30.5149 4.68457L-0.790225 11.3168C-1.10254 9.8426 -1.10715 8.31982 -0.803767 6.84378L30.541 13.2863ZM14.8624 24.0007H15.1499V-7.99933H14.8624V24.0007ZM15.0703 24.0005C7.16952 23.9612 -0.622748 17.5593 -0.369465 8.04967L31.6192 8.90167C31.8862 -1.12419 23.6327 -7.95733 15.2295 -7.99913L15.0703 24.0005ZM-0.375138 8.47567V9.62567H31.6249V8.47567H-0.375138Z" fill="#A0AEC0" mask="url(#path-1-inside-1_660_4067)"/>
<mask id="path-3-inside-2_660_4067" fill="white">
<path d="M12.5193 14.665H7.48051C6.39745 14.6662 5.35909 15.097 4.59326 15.8628C3.82742 16.6286 3.39667 17.667 3.39551 18.75C3.39551 18.9158 3.46136 19.0748 3.57857 19.192C3.69578 19.3092 3.85475 19.375 4.02051 19.375H15.9793C16.145 19.375 16.304 19.3092 16.4212 19.192C16.5384 19.0748 16.6043 18.9158 16.6043 18.75C16.6031 17.667 16.1723 16.6286 15.4065 15.8628C14.6407 15.097 13.6023 14.6662 12.5193 14.665ZM4.71488 18.125C4.85744 17.4979 5.20868 16.9377 5.71111 16.5363C6.21353 16.1348 6.83737 15.9157 7.48051 15.915H12.5193C13.1624 15.9157 13.7862 16.1348 14.2887 16.5363C14.7911 16.9377 15.1423 17.4979 15.2849 18.125H4.71488Z"/>
</mask>
<path d="M12.5193 14.665H7.48051C6.39745 14.6662 5.35909 15.097 4.59326 15.8628C3.82742 16.6286 3.39667 17.667 3.39551 18.75C3.39551 18.9158 3.46136 19.0748 3.57857 19.192C3.69578 19.3092 3.85475 19.375 4.02051 19.375H15.9793C16.145 19.375 16.304 19.3092 16.4212 19.192C16.5384 19.0748 16.6043 18.9158 16.6043 18.75C16.6031 17.667 16.1723 16.6286 15.4065 15.8628C14.6407 15.097 13.6023 14.6662 12.5193 14.665ZM4.71488 18.125C4.85744 17.4979 5.20868 16.9377 5.71111 16.5363C6.21353 16.1348 6.83737 15.9157 7.48051 15.915H12.5193C13.1624 15.9157 13.7862 16.1348 14.2887 16.5363C14.7911 16.9377 15.1423 17.4979 15.2849 18.125H4.71488Z" fill="#111827"/>
<path d="M12.5193 14.665L12.5364 -1.33495L12.5278 -1.33496H12.5193V14.665ZM7.48051 14.665V-1.33496H7.47195L7.4634 -1.33495L7.48051 14.665ZM3.39551 18.75L-12.6045 18.7329L-12.6045 18.7415V18.75H3.39551ZM16.6043 18.75H32.6043V18.7415L32.6042 18.7329L16.6043 18.75ZM4.71488 18.125L-10.8871 14.5785L-15.3303 34.125H4.71488V18.125ZM7.48051 15.915V-0.0849609H7.47172L7.46294 -0.0849514L7.48051 15.915ZM12.5193 15.915L12.5368 -0.0849514L12.528 -0.0849609H12.5193V15.915ZM15.2849 18.125V34.125H35.3301L30.8869 14.5785L15.2849 18.125ZM12.5193 -1.33496H7.48051V30.665H12.5193V-1.33496ZM7.4634 -1.33495C2.14282 -1.32926 -2.95822 0.786847 -6.72045 4.54908L15.907 27.1765C13.6764 29.4071 10.6521 30.6617 7.49762 30.665L7.4634 -1.33495ZM-6.72045 4.54908C-10.4827 8.31131 -12.5988 13.4123 -12.6045 18.7329L19.3955 18.7671C19.3921 21.9216 18.1375 24.9459 15.907 27.1765L-6.72045 4.54908ZM-12.6045 18.75C-12.6045 23.1592 -10.853 27.3879 -7.73514 30.5057L14.8923 7.87827C17.7757 10.7617 19.3955 14.6724 19.3955 18.75H-12.6045ZM-7.73514 30.5057C-4.61733 33.6235 -0.388681 35.375 4.02051 35.375V3.37504C8.09818 3.37504 12.0089 4.99488 14.8923 7.87827L-7.73514 30.5057ZM4.02051 35.375H15.9793V3.37504H4.02051V35.375ZM15.9793 35.375C20.3884 35.375 24.6171 33.6235 27.7349 30.5057L5.10749 7.87827C7.99089 4.99487 11.9016 3.37504 15.9793 3.37504V35.375ZM27.7349 30.5057C30.8527 27.3879 32.6043 23.1592 32.6043 18.75H0.604257C0.604257 14.6724 2.22409 10.7617 5.10749 7.87827L27.7349 30.5057ZM32.6042 18.7329C32.5986 13.4124 30.4825 8.31131 26.7202 4.54908L4.0928 27.1765C1.86224 24.9459 0.607639 21.9216 0.604266 18.7671L32.6042 18.7329ZM26.7202 4.54908C22.958 0.786845 17.8569 -1.32926 12.5364 -1.33495L12.5021 30.665C9.34768 30.6617 6.32336 29.4071 4.0928 27.1765L26.7202 4.54908ZM20.3169 21.6716C19.6561 24.5784 18.0281 27.1748 15.6993 29.0357L-4.27712 4.03685C-7.61073 6.70072 -9.94123 10.4174 -10.8871 14.5785L20.3169 21.6716ZM15.6993 29.0357C13.3706 30.8966 10.479 31.9118 7.49808 31.915L7.46294 -0.0849514C3.19571 -0.080265 -0.943515 1.37297 -4.27712 4.03685L15.6993 29.0357ZM7.48051 31.915H12.5193V-0.0849609H7.48051V31.915ZM12.5017 31.915C9.52073 31.9118 6.62919 30.8966 4.30043 29.0357L24.2769 4.03685C20.9433 1.37297 16.8041 -0.080265 12.5368 -0.0849514L12.5017 31.915ZM4.30043 29.0357C1.97167 27.1748 0.343651 24.5784 -0.317106 21.6716L30.8869 14.5785C29.941 10.4174 27.6105 6.70072 24.2769 4.03685L4.30043 29.0357ZM15.2849 2.12504H4.71488V34.125H15.2849V2.12504Z" fill="#A0AEC0" mask="url(#path-3-inside-2_660_4067)"/>
</svg>
